HIERARCHY
ROOT Hips
{
    OFFSET 0.000000 0.000000 0.000000
    CHANNELS 6 Xposition Yposition Zposition Zrotation Xrotation Yrotation
    JOINT Spine
    {
        OFFSET 0.000002 7.164412 0.000002
        CHANNELS 3 Zrotation Xrotation Yrotation
        JOINT Spine1
        {
            OFFSET -0.000001 20.126801 -0.000002
            CHANNELS 3 Zrotation Xrotation Yrotation
            JOINT Neck
            {
                OFFSET 0.000000 21.094069 0.000000
                CHANNELS 3 Zrotation Xrotation Yrotation
                JOINT Head
                {
                    OFFSET -0.000001 12.838277 1.776080
                    CHANNELS 3 Zrotation Xrotation Yrotation
                    End Site
                    {
                        OFFSET 0.000000 17.760757 0.000000
                    }
                }
            }
            JOINT LeftShoulder
            {
                OFFSET 3.550527 15.465700 -0.908803
                CHANNELS 3 Zrotation Xrotation Yrotation
                JOINT LeftArm
                {
                    OFFSET 12.513296 -0.000006 -0.000002
                    CHANNELS 3 Zrotation Xrotation Yrotation
                    JOINT LeftForeArm
                    {
                        OFFSET 24.225996 -0.000003 0.000001
                        CHANNELS 3 Zrotation Xrotation Yrotation
                        JOINT LeftHand
                        {
                            OFFSET 20.711399 -0.000005 -0.000004
                            CHANNELS 3 Zrotation Xrotation Yrotation
                            JOINT LeftHandThumb1
                            {
                                OFFSET 2.121969 -2.411331 3.375859
                                CHANNELS 3 Zrotation Xrotation Yrotation
                                JOINT LeftHandThumb2
                                {
                                    OFFSET 2.803208 0.000003 0.000001
                                    CHANNELS 3 Zrotation Xrotation Yrotation
                                    JOINT LeftHandThumb3
                                    {
                                        OFFSET 2.395929 0.000004 -0.000003
                                        CHANNELS 3 Zrotation Xrotation Yrotation
                                        End Site
                                        {
                                            OFFSET 2.127676 0.000000 0.000000
                                        }
                                    }
                                }
                            }
                            JOINT LeftHandIndex1
                            {
                                OFFSET 8.680775 0.000005 3.375860
                                CHANNELS 3 Zrotation Xrotation Yrotation
                                JOINT LeftHandIndex2
                                {
                                    OFFSET 4.218178 -0.000000 -0.000000
                                    CHANNELS 3 Zrotation Xrotation Yrotation
                                    JOINT LeftHandIndex3
                                    {
                                        OFFSET 2.109086 -0.000004 0.000002
                                        CHANNELS 3 Zrotation Xrotation Yrotation
                                        End Site
                                        {
                                            OFFSET 1.872952 0.000000 0.000000
                                        }
                                    }
                                }
                            }
                            JOINT LeftHandMiddle1
                            {
                                OFFSET 8.680778 -0.000002 1.118860
                                CHANNELS 3 Zrotation Xrotation Yrotation
                                JOINT LeftHandMiddle2
                                {
                                    OFFSET 4.640003 -0.000004 -0.000001
                                    CHANNELS 3 Zrotation Xrotation Yrotation
                                    JOINT LeftHandMiddle3
                                    {
                                        OFFSET 2.530911 0.000002 -0.000001
                                        CHANNELS 3 Zrotation Xrotation Yrotation
                                        End Site
                                        {
                                            OFFSET 2.247544 0.000000 0.000000
                                        }
                                    }
                                }
                            }
                            JOINT LeftHandRing1
                            {
                                OFFSET 8.198517 0.000004 -1.118860
                                CHANNELS 3 Zrotation Xrotation Yrotation
                                JOINT LeftHandRing2
                                {
                                    OFFSET 4.218183 -0.000002 -0.000002
                                    CHANNELS 3 Zrotation Xrotation Yrotation
                                    JOINT LeftHandRing3
                                    {
                                        OFFSET 2.109094 0.000005 -0.000000
                                        CHANNELS 3 Zrotation Xrotation Yrotation
                                        End Site
                                        {
                                            OFFSET 1.872952 0.000000 0.000000
                                        }
                                    }
                                }
                            }
                            JOINT LeftHandPinky1
                            {
                                OFFSET 7.716254 0.000002 -3.375863
                                CHANNELS 3 Zrotation Xrotation Yrotation
                                JOINT LeftHandPinky2
                                {
                                    OFFSET 3.374536 0.000002 0.000001
                                    CHANNELS 3 Zrotation Xrotation Yrotation
                                    JOINT LeftHandPinky3
                                    {
                                        OFFSET 1.687274 -0.000002 -0.000004
                                        CHANNELS 3 Zrotation Xrotation Yrotation
                                        End Site
                                        {
                                            OFFSET 1.498360 0.000000 0.000000
                                        }
                                    }
                                }
                            }
                        }
                    }
                }
            }
            JOINT RightShoulder
            {
                OFFSET -3.550529 15.465699 -0.908801
                CHANNELS 3 Zrotation Xrotation Yrotation
                JOINT RightArm
                {
                    OFFSET -12.513299 -0.000001 -0.000000
                    CHANNELS 3 Zrotation Xrotation Yrotation
                    JOINT RightForeArm
                    {
                        OFFSET -24.226000 -0.000003 -0.000001
                        CHANNELS 3 Zrotation Xrotation Yrotation
                        JOINT RightHand
                        {
                            OFFSET -20.711397 -0.000003 -0.000002
                            CHANNELS 3 Zrotation Xrotation Yrotation
                            JOINT RightHandThumb1
                            {
                                OFFSET -2.121970 -2.411331 3.375859
                                CHANNELS 3 Zrotation Xrotation Yrotation
                                JOINT RightHandThumb2
                                {
                                    OFFSET -2.803209 -0.000004 0.000004
                                    CHANNELS 3 Zrotation Xrotation Yrotation
                                    JOINT RightHandThumb3
                                    {
                                        OFFSET -2.395928 0.000004 -0.000003
                                        CHANNELS 3 Zrotation Xrotation Yrotation
                                        End Site
                                        {
                                            OFFSET -2.127676 0.000000 0.000000
                                        }
                                    }
                                }
                            }
                            JOINT RightHandIndex1
                            {
                                OFFSET -8.680779 0.000001 3.375859
                                CHANNELS 3 Zrotation Xrotation Yrotation
                                JOINT RightHandIndex2
                                {
                                    OFFSET -4.218179 0.000003 -0.000001
                                    CHANNELS 3 Zrotation Xrotation Yrotation
                                    JOINT RightHandIndex3
                                    {
                                        OFFSET -2.109090 -0.000002 0.000000
                                        CHANNELS 3 Zrotation Xrotation Yrotation
                                        End Site
                                        {
                                            OFFSET -1.872952 0.000000 0.000000
                                        }
                                    }
                                }
                            }
                            JOINT RightHandMiddle1
                            {
                                OFFSET -8.680779 -0.000002 1.118859
                                CHANNELS 3 Zrotation Xrotation Yrotation
                                JOINT RightHandMiddle2
                                {
                                    OFFSET -4.639998 0.000003 -0.000001
                                    CHANNELS 3 Zrotation Xrotation Yrotation
                                    JOINT RightHandMiddle3
                                    {
                                        OFFSET -2.530910 -0.000000 -0.000000
                                        CHANNELS 3 Zrotation Xrotation Yrotation
                                        End Site
                                        {
                                            OFFSET -2.247544 0.000000 0.000000
                                        }
                                    }
                                }
                            }
                            JOINT RightHandRing1
                            {
                                OFFSET -8.198519 -0.000004 -1.118859
                                CHANNELS 3 Zrotation Xrotation Yrotation
                                JOINT RightHandRing2
                                {
                                    OFFSET -4.218180 -0.000005 0.000000
                                    CHANNELS 3 Zrotation Xrotation Yrotation
                                    JOINT RightHandRing3
                                    {
                                        OFFSET -2.109090 0.000002 0.000002
                                        CHANNELS 3 Zrotation Xrotation Yrotation
                                        End Site
                                        {
                                            OFFSET -1.872952 0.000000 0.000000
                                        }
                                    }
                                }
                            }
                            JOINT RightHandPinky1
                            {
                                OFFSET -7.716249 0.000004 -3.375858
                                CHANNELS 3 Zrotation Xrotation Yrotation
                                JOINT RightHandPinky2
                                {
                                    OFFSET -3.374539 0.000003 -0.000000
                                    CHANNELS 3 Zrotation Xrotation Yrotation
                                    JOINT RightHandPinky3
                                    {
                                        OFFSET -1.687270 -0.000004 -0.000001
                                        CHANNELS 3 Zrotation Xrotation Yrotation
                                        End Site
                                        {
                                            OFFSET -1.498360 0.000000 0.000000
                                        }
                                    }
                                }
                            }
                        }
                    }
                }
            }
        }
    }
    JOINT LeftUpLeg
    {
        OFFSET 8.880377 0.000003 0.000001
        CHANNELS 3 Zrotation Xrotation Yrotation
        JOINT LeftLeg
        {
            OFFSET -0.000000 -40.387413 0.000001
            CHANNELS 3 Zrotation Xrotation Yrotation
            JOINT LeftFoot
            {
                OFFSET -0.000000 -36.911304 0.000000
                CHANNELS 3 Zrotation Xrotation Yrotation
                JOINT LeftToeBase
                {
                    OFFSET 0.000003 -5.772240 13.320597
                    CHANNELS 3 Zrotation Xrotation Yrotation
                    End Site
                    {
                        OFFSET 0.000000 0.000000 3.552151
                    }
                }
            }
        }
    }
    JOINT RightUpLeg
    {
        OFFSET -8.880380 -0.000003 -0.000001
        CHANNELS 3 Zrotation Xrotation Yrotation
        JOINT RightLeg
        {
            OFFSET 0.000001 -40.387405 0.000000
            CHANNELS 3 Zrotation Xrotation Yrotation
            JOINT RightFoot
            {
                OFFSET -0.000001 -36.911304 -0.000001
                CHANNELS 3 Zrotation Xrotation Yrotation
                JOINT RightToeBase
                {
                    OFFSET 0.000000 -5.772241 13.320600
                    CHANNELS 3 Zrotation Xrotation Yrotation
                    End Site
                    {
                        OFFSET 0.000000 0.000000 3.552151
                    }
                }
            }
        }
    }
}
MOTION
Frames: 5
Frame Time: 0.013889
69.588280    80.209038    -9.901148    11.037455    5.511272    -8.593319    -0.492454    -14.112189    -2.018946    2.591745    14.802333    -2.556592    -10.058784    -14.672830    2.349423    -0.428322    2.197625    5.012952    -1.733275    5.181547    -7.086397    -3.021008    53.273365    -48.093472    -1.891302    -1.525944    -51.116161    -15.438584    47.642906    -4.455784    31.894007    33.304363    -49.511364    -32.366501    -8.567635    21.768595    -0.000000    0.000000    -0.000000    6.022326    17.906979    -15.906561    5.729576    -0.000001    -0.000001    5.729579    0.000001    -0.000000    5.800518    8.954673    -7.930221    5.729572    0.000000    0.000001    5.729583    0.000000    -0.000000    5.800518    -8.954671    -4.823688    5.729572    0.000000    0.000002    5.729576    -0.000002    0.000000    6.022323    -17.906975    -9.601259    5.729576    -0.000002    0.000002    5.729586    -0.000000    -0.000005    3.734747    5.672601    6.492157    50.424942    33.177814    12.719102    -4.715076    8.772850    28.404072    -40.806404    22.303610    9.523152    -32.665066    32.777061    48.108467    14.675379    -1.192230    -23.288670    -0.000000    0.000000    -0.000000    -6.022320    17.906979    -1.077011    -5.729578    0.000001    0.000002    -5.729577    0.000002    -0.000002    -5.800512    8.954673    -0.561567    -5.729572    0.000004    0.000014    -5.729578    0.000000    -0.000007    -5.800508    -8.954671    3.533284    -5.729581    0.000002    -0.000005    -5.729580    -0.000001    -0.000005    -6.022315    -17.906971    7.020437    -5.729577    0.000001    0.000004    -5.729579    0.000002    0.000001    -7.845650    -26.071127    7.047985    -0.000000    48.315865    0.000000    -0.853150    -10.085965    1.865879    -0.000000    -1.894853    0.000000    -11.991771    -22.050295    -3.838189    -0.000001    45.092125    0.000002    3.246380    -23.715897    3.483053    -0.000000    0.558666    0.000001    
69.752617    80.181335    -9.974572    11.193642    5.455935    -8.387032    -0.568061    -14.018347    -2.343874    2.653180    14.835781    -2.879142    -9.194412    -14.573831    2.799740    -0.384738    2.562214    5.235621    -1.442202    5.110170    -7.707930    -1.649209    52.759792    -50.620480    -2.103086    -1.865929    -48.437275    -19.011295    48.394901    -1.785552    31.772736    33.572021    -47.938915    -31.472921    -8.213434    21.898996    -0.000000    0.000000    -0.000000    6.022327    17.906977    -11.519541    5.729576    -0.000000    0.000000    5.729572    -0.000000    0.000000    5.800515    8.954672    -5.736710    5.729583    0.000001    -0.000000    5.729569    0.000000    0.000001    5.800511    -8.954675    -4.823688    5.729586    -0.000000    -0.000003    5.729569    0.000000    0.000003    6.022325    -17.906973    -9.601264    5.729586    0.000000    -0.000000    5.729568    -0.000001    0.000005    3.850589    5.792966    6.771794    48.794682    35.481621    13.383913    -5.380304    9.685742    29.239548    -40.381413    23.834120    10.316675    -32.264965    33.164368    47.760460    14.857048    -1.270409    -23.284782    -0.000000    0.000000    -0.000000    -6.022320    17.906971    -0.233708    -5.729578    0.000001    0.000007    -5.729581    -0.000000    0.000004    -5.800512    8.954671    -0.139910    -5.729580    -0.000002    0.000002    -5.729578    0.000000    -0.000005    -5.800513    -8.954670    3.453749    -5.729578    0.000002    0.000004    -5.729579    -0.000000    0.000001    -6.022316    -17.906975    6.861392    -5.729579    0.000002    0.000003    -5.729582    0.000002    -0.000011    -7.538833    -26.265404    6.378728    -0.000001    48.457535    0.000001    -0.462489    -10.299778    2.672522    0.000000    -1.813900    0.000000    -12.330724    -22.136614    -4.067438    0.000000    45.336395    0.000001    3.008248    -23.774122    3.329806    -0.000000    0.384610    0.000002    
69.904144    80.154419    -10.040437    11.306760    5.414961    -8.109647    -0.637728    -13.897495    -2.653366    2.805528    14.849824    -3.210514    -8.468773    -14.523184    3.193573    -0.419964    2.869501    5.450086    -1.264989    4.964416    -8.257224    -0.015405    52.132404    -53.487873    -2.090686    -2.045974    -45.637882    -23.364008    48.379681    1.555208    31.055990    34.261139    -47.059834    -30.997604    -8.023958    21.966122    -0.000000    0.000000    -0.000000    6.022306    17.906969    -8.032979    5.729579    -0.000000    -0.000000    5.729586    0.000001    0.000000    5.800502    8.954665    -3.993429    5.729579    -0.000001    -0.000000    5.729579    0.000001    -0.000001    5.800509    -8.954679    -4.823683    5.729572    0.000003    -0.000000    5.729573    -0.000002    0.000002    6.022306    -17.906975    -9.601252    5.729582    -0.000003    -0.000002    5.729580    0.000004    0.000003    4.012014    5.897120    7.021716    47.201515    37.535625    13.988666    -5.932574    10.321987    30.111416    -40.332188    24.972155    11.221927    -32.083691    33.349838    47.481087    14.933876    -1.303460    -23.283045    -0.000000    0.000000    -0.000000    -6.022320    17.906975    0.616259    -5.729576    -0.000001    -0.000004    -5.729580    -0.000000    0.000003    -5.800511    8.954674    0.285073    -5.729580    -0.000001    -0.000007    -5.729579    0.000003    0.000010    -5.800513    -8.954667    3.343781    -5.729582    0.000002    -0.000007    -5.729576    -0.000000    0.000007    -6.022316    -17.906973    6.641449    -5.729585    0.000001    -0.000018    -5.729577    0.000001    0.000010    -7.126038    -26.376642    5.687334    -0.000000    48.396866    0.000000    -0.132029    -10.472349    3.433773    -0.000000    -1.691588    0.000000    -12.590741    -22.138716    -4.225185    0.000001    45.467731    -0.000002    2.782896    -23.885857    3.048113    0.000000    0.266366    -0.000000    
70.114067    80.115730    -10.094810    11.370243    5.337453    -7.773191    -0.733450    -13.803988    -3.071192    3.023397    14.872776    -3.660873    -7.465793    -14.301954    3.691781    -0.384531    3.360268    5.674965    -1.094799    4.732280    -8.895152    2.253965    51.232059    -57.314098    -1.528429    -1.693034    -42.085808    -30.073845    47.459381    6.987950    30.319136    34.916122    -46.478676    -30.285780    -7.738878    22.063730    -0.000000    0.000000    -0.000000    6.022319    17.906975    -5.168141    5.729584    0.000005    -0.000001    5.729573    -0.000000    0.000000    5.800528    8.954672    -2.561015    5.729562    0.000004    0.000001    5.729579    -0.000000    -0.000000    5.800515    -8.954669    -4.823692    5.729579    0.000001    0.000001    5.729579    -0.000002    0.000002    6.022315    -17.906973    -9.601264    5.729579    -0.000002    -0.000002    5.729571    -0.000002    0.000002    4.137368    6.054214    7.564142    44.816074    40.313225    14.924001    -6.666309    11.132106    31.188820    -39.174313    25.820114    12.219954    -32.223858    33.252552    47.274467    14.860014    -1.271683    -23.284729    -0.000000    0.000000    -0.000000    -6.022320    17.906977    1.788955    -5.729580    -0.000000    -0.000001    -5.729580    0.000000    -0.000005    -5.800515    8.954673    0.871424    -5.729578    0.000001    -0.000000    -5.729579    0.000000    -0.000007    -5.800511    -8.954672    3.158518    -5.729578    -0.000000    0.000003    -5.729580    -0.000001    -0.000007    -6.022324    -17.906973    6.270923    -5.729573    -0.000002    0.000007    -5.729578    0.000000    -0.000004    -6.379850    -26.349470    4.755941    0.000000    48.136875    -0.000000    0.326566    -10.629773    4.422437    -0.000000    -1.484190    0.000000    -12.838872    -22.058086    -4.320688    0.000000    45.567574    -0.000001    2.682024    -24.032749    2.739488    0.000000    0.247807    -0.000002    
70.261154    80.082603    -10.120823    11.368675    5.266035    -7.482319    -0.811648    -13.768769    -3.406449    3.188846    14.880563    -4.019172    -6.701327    -14.060459    4.081860    -0.322561    3.733899    5.849035    -0.908479    4.491576    -9.357194    3.960161    50.489681    -60.036686    -0.822754    -0.990592    -39.715565    -34.637947    46.224854    10.534215    30.398857    34.859413    -46.279606    -29.436064    -7.396497    22.175640    -0.000000    0.000000    -0.000000    6.022329    17.906975    -4.214104    5.729578    -0.000000    -0.000000    5.729558    0.000002    0.000005    5.800519    8.954672    -2.083992    5.729568    0.000002    0.000005    5.729575    -0.000000    0.000001    5.800519    -8.954673    -4.818161    5.729565    0.000002    0.000006    5.729575    0.000000    0.000002    6.022326    -17.906977    -9.590205    5.729566    0.000000    0.000005    5.729576    0.000000    0.000002    4.210961    6.147443    7.940864    42.869766    42.374645    15.815597    -7.357760    11.835241    32.194088    -38.179016    26.240685    13.079449    -32.493866    33.034046    47.189789    14.728386    -1.215040    -23.287580    -0.000000    0.000000    -0.000000    -6.022324    17.906979    2.692185    -5.729580    -0.000001    0.000006    -5.729580    0.000000    -0.000012    -5.800513    8.954676    1.323040    -5.729580    -0.000002    -0.000004    -5.729577    -0.000001    0.000003    -5.800510    -8.954670    3.072341    -5.729578    0.000002    -0.000000    -5.729578    -0.000000    0.000003    -6.022319    -17.906971    6.098550    -5.729577    0.000001    0.000005    -5.729576    -0.000001    -0.000005    -5.708717    -26.197470    4.025634    0.000000    47.736465    0.000001    0.661561    -10.671986    5.029368    0.000000    -1.343712    -0.000000    -12.971500    -21.974754    -4.361383    -0.000001    45.681347    0.000001    2.696635    -24.150297    2.518632    -0.000000    0.305346    -0.000000    
